<?xml version="1.0" standalone="no"?>
<!DOCTYPE svg PUBLIC "-//W3C//DTD SVG 20010904//EN"
 "http://www.w3.org/TR/2001/REC-SVG-20010904/DTD/svg10.dtd">
<svg version="1.0" xmlns="http://www.w3.org/2000/svg"
 width="512.000000pt" height="512.000000pt" viewBox="0 0 512.000000 512.000000"
 preserveAspectRatio="xMidYMid meet">

<g transform="translate(0.000000,512.000000) scale(0.100000,-0.100000)"
fill="#000000" stroke="none">
<path d="M279 5097 c-121 -41 -204 -119 -251 -234 l-23 -58 -3 -2225 c-2
-2190 -2 -2226 17 -2290 38 -123 121 -214 238 -262 l58 -23 2240 0 c1786 0
2249 3 2282 13 68 20 164 91 206 152 20 30 46 83 57 118 20 63 20 101 20 2272
0 2171 0 2209 -20 2272 -43 141 -143 237 -285 274 -41 11 -450 14 -2260 14
l-2210 -1 -66 -22z m2043 -2089 l3 -501 179 221 178 222 244 0 c134 0 244 -3
244 -7 -1 -5 -104 -129 -229 -277 l-229 -269 33 -51 c18 -28 122 -193 232
-366 109 -173 207 -327 217 -342 l18 -28 -238 0 -239 0 -144 245 c-78 135
-146 245 -150 245 -4 0 -32 -26 -64 -58 l-57 -58 0 -187 0 -187 -205 0 -205 0
0 950 0 950 205 0 205 0 2 -502z"/>
</g>
</svg>
